<svg width="38" height="38" viewBox="0 0 38 38" fill="none" xmlns="http://www.w3.org/2000/svg">
<circle cx="19" cy="19" r="19" fill="#674676"/>
<path fill-rule="evenodd" clip-rule="evenodd" d="M16.1575 7.36733C16.6472 7.85709 16.6472 8.65117 16.1575 9.14093L13.6492 11.6492C13.1594 12.139 12.3654 12.139 11.8756 11.6492C11.3858 11.1594 11.3858 10.3654 11.8756 9.87559L14.3838 7.36733C14.8736 6.87756 15.6677 6.87756 16.1575 7.36733ZM21.174 7.36733C21.6637 7.85709 21.6637 8.65117 21.174 9.14093L18.6657 11.6492C18.1759 12.139 17.3819 12.139 16.8921 11.6492C16.4023 11.1594 16.4023 10.3654 16.8921 9.87559L19.4004 7.36733C19.8901 6.87756 20.6842 6.87756 21.174 7.36733ZM26.1905 7.36733C26.6803 7.85709 26.6803 8.65117 26.1905 9.14093L23.6822 11.6492C23.1925 12.139 22.3984 12.139 21.9086 11.6492C21.4189 11.1594 21.4189 10.3654 21.9086 9.87559L24.4169 7.36733C24.9067 6.87756 25.7007 6.87756 26.1905 7.36733ZM9 17.033C9 14.9551 10.6845 13.2707 12.7624 13.2707H25.3037C26.9668 13.2707 28.5617 13.9313 29.7377 15.1073C30.9137 16.2833 31.5743 17.8782 31.5743 19.5413C31.5743 21.2044 30.9137 22.7993 29.7377 23.9753C28.8619 24.8512 27.7536 25.4412 26.5578 25.6853V27.0661C26.5578 29.144 24.8733 30.8285 22.7954 30.8285H12.7624C10.6845 30.8285 9 29.144 9 27.0661V17.033ZM26.5578 23.0885C27.0819 22.9032 27.5635 22.6023 27.9641 22.2017C28.6697 21.4961 29.0661 20.5392 29.0661 19.5413C29.0661 18.5435 28.6697 17.5865 27.9641 16.8809C27.5635 16.4803 27.0819 16.1794 26.5578 15.9941V23.0885ZM24.0496 15.7789H12.7624C12.0698 15.7789 11.5083 16.3404 11.5083 17.033V27.0661C11.5083 27.7587 12.0698 28.3202 12.7624 28.3202H22.7954C23.4881 28.3202 24.0496 27.7587 24.0496 27.0661V15.7789Z" fill="white"/>
</svg>